<svg width="270" height="270" viewBox="0 0 270 270" fill="none" xmlns="http://www.w3.org/2000/svg">
<path d="M224.894 123.383H44.3057C38.4207 123.383 33.6499 128.154 33.6499 134.039V135.161C33.6499 141.046 38.4207 145.816 44.3057 145.816H224.894C230.779 145.816 235.549 141.046 235.549 135.161V134.039C235.549 128.154 230.779 123.383 224.894 123.383Z" fill="#231F20"/>
<path d="M224.894 179.466H44.3057C38.4207 179.466 33.6499 184.237 33.6499 190.122V191.244C33.6499 197.129 38.4207 201.9 44.3057 201.9H224.894C230.779 201.9 235.549 197.129 235.549 191.244V190.122C235.549 184.237 230.779 179.466 224.894 179.466Z" fill="#231F20"/>
<path d="M224.894 67.2998H44.3057C38.4207 67.2998 33.6499 72.0706 33.6499 77.9556V79.0773C33.6499 84.9623 38.4207 89.7331 44.3057 89.7331H224.894C230.779 89.7331 235.549 84.9623 235.549 79.0773V77.9556C235.549 72.0706 230.779 67.2998 224.894 67.2998Z" fill="#231F20"/>
</svg>
