<svg width="270" height="270" viewBox="0 0 270 270" fill="none" xmlns="http://www.w3.org/2000/svg">
<path d="M78.5166 235.549H190.683V78.5165H179.466V61.6915C179.466 54.2544 176.512 47.1219 171.253 41.8631C165.994 36.6043 158.862 33.6499 151.425 33.6499H117.775C110.338 33.6499 103.205 36.6043 97.9464 41.8631C92.6876 47.1219 89.7332 54.2544 89.7332 61.6915V78.5165H78.5166V235.549ZM112.167 61.6915C112.167 60.2041 112.757 58.7776 113.809 57.7258C114.861 56.6741 116.287 56.0832 117.775 56.0832H151.425C152.912 56.0832 154.339 56.6741 155.39 57.7258C156.442 58.7776 157.033 60.2041 157.033 61.6915V78.5165H112.167V61.6915Z" fill="#231F20"/>
<path d="M213.116 78.5166V235.55C222.041 235.55 230.6 232.004 236.91 225.694C243.221 219.383 246.766 210.824 246.766 201.9V112.167C246.766 103.242 243.221 94.683 236.91 88.3724C230.6 82.0619 222.041 78.5166 213.116 78.5166Z" fill="#231F20"/>
<path d="M56.083 78.5166C47.1585 78.5166 38.5995 82.0619 32.2889 88.3724C25.9784 94.683 22.4331 103.242 22.4331 112.167V201.9C22.4331 210.824 25.9784 219.383 32.2889 225.694C38.5995 232.004 47.1585 235.55 56.083 235.55V78.5166Z" fill="#231F20"/>
</svg>
