<svg width="270" height="270" viewBox="0 0 270 270" fill="none" xmlns="http://www.w3.org/2000/svg">
<path d="M112.164 213.116C109.543 213.121 107.003 212.209 104.985 210.537C103.85 209.595 102.911 208.438 102.223 207.133C101.535 205.828 101.111 204.4 100.975 202.931C100.84 201.462 100.995 199.981 101.433 198.572C101.871 197.163 102.583 195.854 103.527 194.721L153.778 134.6L105.322 74.3665C104.39 73.2191 103.694 71.899 103.275 70.4819C102.855 69.0648 102.719 67.5787 102.875 66.109C103.032 64.6393 103.477 63.2149 104.186 61.9179C104.894 60.6208 105.852 59.4766 107.004 58.551C108.165 57.5299 109.524 56.7596 110.996 56.2887C112.469 55.8177 114.023 55.6561 115.56 55.8141C117.098 55.9721 118.586 56.4462 119.932 57.2067C121.278 57.9672 122.452 58.9977 123.381 60.2335L177.557 127.533C179.207 129.54 180.109 132.058 180.109 134.656C180.109 137.254 179.207 139.771 177.557 141.778L121.474 209.078C120.349 210.436 118.919 211.509 117.302 212.21C115.684 212.912 113.924 213.222 112.164 213.116Z" fill="#231F20"/>
</svg>
