<svg width="270" height="270" viewBox="0 0 270 270" fill="none" xmlns="http://www.w3.org/2000/svg">
<path d="M218.724 79.0773H140.208L110.708 43.4084C109.664 42.1217 108.349 41.0822 106.855 40.3646C105.362 39.647 103.728 39.2692 102.071 39.2582H50.4747C43.1459 39.1682 36.08 41.986 30.8243 47.0946C25.5685 52.2032 22.5512 59.1862 22.4331 66.5146V202.685C22.5512 210.013 25.5685 216.996 30.8243 222.105C36.08 227.213 43.1459 230.031 50.4747 229.941H218.724C226.053 230.031 233.119 227.213 238.375 222.105C243.631 216.996 246.648 210.013 246.766 202.685V106.334C246.648 99.0053 243.631 92.0222 238.375 86.9137C233.119 81.8051 226.053 78.9873 218.724 79.0773ZM157.033 168.25H145.816V179.466C145.816 182.441 144.634 185.294 142.531 187.398C140.427 189.501 137.574 190.683 134.6 190.683C131.625 190.683 128.772 189.501 126.668 187.398C124.565 185.294 123.383 182.441 123.383 179.466V168.25H112.166C109.191 168.25 106.338 167.068 104.235 164.964C102.131 162.861 100.95 160.008 100.95 157.033C100.95 154.058 102.131 151.205 104.235 149.102C106.338 146.998 109.191 145.816 112.166 145.816H123.383V134.6C123.383 131.625 124.565 128.772 126.668 126.668C128.772 124.565 131.625 123.383 134.6 123.383C137.574 123.383 140.427 124.565 142.531 126.668C144.634 128.772 145.816 131.625 145.816 134.6V145.816H157.033C160.008 145.816 162.861 146.998 164.964 149.102C167.068 151.205 168.249 154.058 168.249 157.033C168.249 160.008 167.068 162.861 164.964 164.964C162.861 167.068 160.008 168.25 157.033 168.25Z" fill="#231F20"/>
</svg>
