<svg width="270" height="270" viewBox="0 0 270 270" fill="none" xmlns="http://www.w3.org/2000/svg">
<path d="M96.5727 246.766C91.0993 246.734 85.7847 244.923 81.4303 241.607L58.2118 224.333C52.8538 220.155 49.2986 214.085 48.2764 207.368C47.2543 200.651 48.8428 193.798 52.7157 188.215C54.7648 185.19 56.0671 181.721 56.5156 178.094C56.964 174.468 56.5459 170.786 55.2955 167.352L54.6225 165.558C53.7519 162.45 52.1606 159.591 49.9778 157.213C47.795 154.835 45.0823 153.006 42.0599 151.873H40.2652C33.7132 149.67 28.2949 144.971 25.1868 138.797C22.0786 132.623 21.5316 125.472 23.6646 118.896L32.8622 89.7332C33.7089 86.3543 35.2677 83.1953 37.4343 80.4678C39.6009 77.7402 42.3252 75.507 45.4249 73.9177C48.3115 72.4304 51.4698 71.5443 54.7088 71.3129C57.9478 71.0816 61.2001 71.5098 64.2688 72.5717C67.6101 73.6962 71.1754 73.9877 74.6549 73.4208C78.1345 72.8539 81.4229 71.4458 84.2344 69.3189L85.6926 68.1973C88.2376 66.1665 90.2945 63.5906 91.7116 60.6593C93.1287 57.728 93.87 54.516 93.8808 51.2601V48.5681C93.8506 41.705 96.5329 35.1079 101.344 30.213C106.155 25.3182 112.704 22.522 119.567 22.4333H148.169C151.508 22.4423 154.813 23.1109 157.892 24.4006C160.972 25.6902 163.767 27.5756 166.116 29.9485C171.055 34.9712 173.798 41.7487 173.743 48.7925V51.9331C173.686 55.0261 174.357 58.0892 175.701 60.8754C177.046 63.6615 179.026 66.0927 181.483 67.9729L182.717 68.8703C185.234 70.758 188.171 72.0091 191.276 72.5169C194.381 73.0247 197.563 72.7742 200.551 71.7866L204.365 70.5528C207.596 69.4817 211.01 69.0724 214.402 69.3492C217.795 69.626 221.097 70.5833 224.112 72.1639C227.127 73.7446 229.792 75.9162 231.95 78.5493C234.107 81.1825 235.712 84.2231 236.669 87.4899L245.53 115.756C247.58 122.288 247.02 129.361 243.966 135.489C240.913 141.617 235.603 146.324 229.153 148.621L226.91 149.406C223.611 150.486 220.627 152.36 218.221 154.864C215.816 157.367 214.062 160.423 213.114 163.763C212.221 166.868 212.009 170.129 212.493 173.323C212.977 176.517 214.145 179.569 215.918 182.271L218.834 186.533C222.702 192.146 224.275 199.026 223.233 205.763C222.19 212.499 218.61 218.581 213.226 222.763L190.68 240.148C187.957 242.231 184.835 243.735 181.509 244.566C178.182 245.398 174.72 245.539 171.337 244.982C167.953 244.425 164.72 243.182 161.835 241.328C158.95 239.474 156.475 237.05 154.563 234.204L153.217 232.297C151.38 229.536 148.873 227.286 145.931 225.756C142.989 224.226 139.707 223.466 136.392 223.548C133.228 223.63 130.129 224.454 127.342 225.954C124.556 227.455 122.162 229.589 120.352 232.185L117.772 235.886C115.859 238.752 113.379 241.196 110.486 243.067C107.592 244.939 104.346 246.197 100.947 246.766C99.4926 246.909 98.0274 246.909 96.5727 246.766ZM49.3507 130.337C55.6846 132.596 61.3999 136.31 66.0365 141.18C70.6732 146.051 74.1018 151.942 76.0463 158.379V159.725C78.4683 166.417 79.2636 173.59 78.3665 180.65C77.4693 187.71 74.9055 194.456 70.8866 200.329C70.1773 201.113 69.7844 202.132 69.7844 203.19C69.7844 204.247 70.1773 205.266 70.8866 206.05L95.0024 224.333C95.3171 224.58 95.6809 224.757 96.0696 224.852C96.4583 224.947 96.8627 224.957 97.2558 224.883C97.6489 224.809 98.0216 224.651 98.3487 224.421C98.6759 224.19 98.95 223.893 99.1526 223.548L101.732 219.846C105.623 214.224 110.819 209.629 116.876 206.456C122.932 203.282 129.667 201.624 136.504 201.624C143.341 201.624 150.076 203.282 156.132 206.456C162.189 209.629 167.385 214.224 171.276 219.846L172.622 221.865C173.104 222.549 173.824 223.029 174.641 223.211C175.015 223.267 175.397 223.245 175.764 223.149C176.13 223.053 176.473 222.883 176.772 222.65L199.878 205.152C200.687 204.51 201.219 203.583 201.365 202.561C201.511 201.538 201.26 200.499 200.663 199.656L197.747 195.394C193.947 189.853 191.44 183.529 190.411 176.89C189.382 170.25 189.857 163.464 191.802 157.033C193.773 150.274 197.339 144.086 202.199 138.992C207.06 133.897 213.072 130.045 219.732 127.758L221.975 126.972C222.91 126.598 223.659 125.869 224.058 124.944C224.457 124.02 224.474 122.974 224.106 122.037L215.357 94.1077C215.147 93.619 214.84 93.1781 214.454 92.8118C214.069 92.4454 213.612 92.1613 213.114 91.9765C212.783 91.809 212.418 91.7217 212.048 91.7217C211.678 91.7217 211.313 91.809 210.983 91.9765L207.169 93.2104C200.718 95.3395 193.846 95.8701 187.144 94.7564C180.443 93.6427 174.112 90.9181 168.696 86.8169L168.247 85.8074C163.05 81.8717 158.836 76.7849 155.937 70.9463C153.037 65.1078 151.53 58.6765 151.534 52.1575V48.6803C151.555 47.5992 151.152 46.5528 150.413 45.764C149.767 45.1808 148.927 44.8606 148.057 44.8666H119.567C119.11 44.8952 118.663 45.0137 118.252 45.2153C117.841 45.417 117.474 45.6978 117.172 46.0417C116.869 46.3856 116.638 46.7859 116.491 47.2194C116.344 47.653 116.284 48.1113 116.314 48.5681V51.3723C116.315 58.0691 114.778 64.6766 111.822 70.6857C108.866 76.6948 104.57 81.945 99.2647 86.0317L97.8066 87.1534C92.0831 91.5111 85.3755 94.3941 78.275 95.5481C71.1745 96.7022 63.8992 96.092 57.0902 93.7712C56.5807 93.6002 56.0293 93.6002 55.5198 93.7712C54.8868 94.1558 54.4101 94.7517 54.1738 95.4537L44.864 124.729C44.5395 125.726 44.6155 126.81 45.0761 127.752C45.5366 128.694 46.3455 129.42 47.3317 129.777L49.3507 130.337Z" fill="#231F20"/>
<path d="M134.6 173.858C126.835 173.858 119.245 171.556 112.789 167.242C106.333 162.928 101.301 156.797 98.3297 149.623C95.3583 142.45 94.5809 134.556 96.0957 126.941C97.6105 119.326 101.349 112.33 106.84 106.84C112.33 101.35 119.325 97.6107 126.941 96.0959C134.556 94.5811 142.45 95.3586 149.623 98.3299C156.797 101.301 162.928 106.333 167.242 112.789C171.555 119.245 173.858 126.835 173.858 134.6C173.858 145.012 169.722 154.997 162.359 162.36C154.997 169.722 145.012 173.858 134.6 173.858ZM134.6 117.775C131.272 117.775 128.019 118.762 125.252 120.61C122.485 122.459 120.329 125.087 119.055 128.161C117.782 131.236 117.449 134.618 118.098 137.882C118.747 141.146 120.35 144.144 122.703 146.497C125.056 148.85 128.053 150.452 131.317 151.102C134.581 151.751 137.964 151.418 141.038 150.144C144.113 148.871 146.74 146.714 148.589 143.947C150.438 141.18 151.425 137.927 151.425 134.6C151.425 130.138 149.652 125.858 146.497 122.703C143.341 119.547 139.062 117.775 134.6 117.775Z" fill="#231F20"/>
</svg>
