<svg width="190" height="190" viewBox="0 0 190 190" fill="none" xmlns="http://www.w3.org/2000/svg">
<path d="M106.175 94.8567L140.037 61.0729C141.52 59.59 142.353 57.5788 142.353 55.4817C142.353 53.3846 141.52 51.3733 140.037 49.8904C138.554 48.4075 136.543 47.5745 134.446 47.5745C132.349 47.5745 130.338 48.4075 128.855 49.8904L95.0711 83.7529L61.2873 49.8904C59.8044 48.4075 57.7932 47.5745 55.6961 47.5745C53.5989 47.5745 51.5877 48.4075 50.1048 49.8904C48.6219 51.3733 47.7888 53.3846 47.7888 55.4817C47.7888 57.5788 48.6219 59.59 50.1048 61.0729L83.9673 94.8567L50.1048 128.64C49.3667 129.373 48.7808 130.243 48.381 131.203C47.9812 132.163 47.7754 133.192 47.7754 134.232C47.7754 135.271 47.9812 136.301 48.381 137.26C48.7808 138.22 49.3667 139.091 50.1048 139.823C50.8369 140.561 51.7079 141.147 52.6675 141.547C53.6272 141.947 54.6565 142.152 55.6961 142.152C56.7356 142.152 57.765 141.947 58.7246 141.547C59.6842 141.147 60.5552 140.561 61.2873 139.823L95.0711 105.96L128.855 139.823C129.587 140.561 130.458 141.147 131.418 141.547C132.377 141.947 133.406 142.152 134.446 142.152C135.486 142.152 136.515 141.947 137.475 141.547C138.434 141.147 139.305 140.561 140.037 139.823C140.775 139.091 141.361 138.22 141.761 137.26C142.161 136.301 142.367 135.271 142.367 134.232C142.367 133.192 142.161 132.163 141.761 131.203C141.361 130.243 140.775 129.373 140.037 128.64L106.175 94.8567Z" fill="#231F20"/>
</svg>
