<svg width="270" height="270" viewBox="0 0 270 270" fill="none" xmlns="http://www.w3.org/2000/svg">
<path d="M201.9 44.8666H190.683V33.65C190.683 30.6752 189.501 27.8222 187.398 25.7186C185.294 23.6151 182.441 22.4333 179.466 22.4333C176.491 22.4333 173.638 23.6151 171.535 25.7186C169.431 27.8222 168.25 30.6752 168.25 33.65V44.8666H100.95V33.65C100.95 30.6752 99.768 27.8222 97.6645 25.7186C95.561 23.6151 92.708 22.4333 89.7331 22.4333C86.7583 22.4333 83.9053 23.6151 81.8018 25.7186C79.6982 27.8222 78.5165 30.6752 78.5165 33.65V44.8666H67.2998C58.3753 44.8666 49.8163 48.4119 43.5057 54.7225C37.1952 61.0331 33.6499 69.5921 33.6499 78.5166V213.116C33.6499 222.041 37.1952 230.6 43.5057 236.91C49.8163 243.221 58.3753 246.766 67.2998 246.766H201.9C210.824 246.766 219.383 243.221 225.694 236.91C232.004 230.6 235.549 222.041 235.549 213.116V78.5166C235.549 69.5921 232.004 61.0331 225.694 54.7225C219.383 48.4119 210.824 44.8666 201.9 44.8666ZM67.2998 67.2999H78.5165V78.5166C78.5165 81.4914 79.6982 84.3444 81.8018 86.4479C83.9053 88.5515 86.7583 89.7332 89.7331 89.7332C92.708 89.7332 95.561 88.5515 97.6645 86.4479C99.768 84.3444 100.95 81.4914 100.95 78.5166V67.2999H168.25V78.5166C168.25 81.4914 169.431 84.3444 171.535 86.4479C173.638 88.5515 176.491 89.7332 179.466 89.7332C182.441 89.7332 185.294 88.5515 187.398 86.4479C189.501 84.3444 190.683 81.4914 190.683 78.5166V67.2999H201.9C204.874 67.2999 207.727 68.4817 209.831 70.5852C211.934 72.6887 213.116 75.5417 213.116 78.5166V123.383H56.0832V78.5166C56.0832 75.5417 57.2649 72.6887 59.3685 70.5852C61.472 68.4817 64.325 67.2999 67.2998 67.2999ZM201.9 224.333H67.2998C64.325 224.333 61.472 223.151 59.3685 221.048C57.2649 218.944 56.0832 216.091 56.0832 213.116V145.816H213.116V213.116C213.116 216.091 211.934 218.944 209.831 221.048C207.727 223.151 204.874 224.333 201.9 224.333Z" fill="#231F20"/>
<path d="M89.7332 190.683C95.928 190.683 100.95 185.661 100.95 179.466C100.95 173.272 95.928 168.25 89.7332 168.25C83.5385 168.25 78.5166 173.272 78.5166 179.466C78.5166 185.661 83.5385 190.683 89.7332 190.683Z" fill="#231F20"/>
<path d="M179.467 168.25H134.6C131.625 168.25 128.772 169.432 126.669 171.535C124.565 173.639 123.383 176.492 123.383 179.466C123.383 182.441 124.565 185.294 126.669 187.398C128.772 189.501 131.625 190.683 134.6 190.683H179.467C182.441 190.683 185.294 189.501 187.398 187.398C189.501 185.294 190.683 182.441 190.683 179.466C190.683 176.492 189.501 173.639 187.398 171.535C185.294 169.432 182.441 168.25 179.467 168.25Z" fill="#231F20"/>
</svg>
