<svg width="270" height="270" viewBox="0 0 270 270" fill="none" xmlns="http://www.w3.org/2000/svg">
<path d="M232.297 216.369L194.16 178.345C206.465 162.669 213.141 143.311 213.116 123.383C213.116 105.636 207.853 88.2866 197.993 73.53C188.133 58.7735 174.119 47.2722 157.722 40.4805C141.326 33.6888 123.284 31.9118 105.877 35.3741C88.4705 38.8365 72.4816 47.3828 59.9322 59.9322C47.3828 72.4816 38.8365 88.4705 35.3741 105.877C31.9118 123.284 33.6888 141.326 40.4805 157.722C47.2722 174.119 58.7735 188.133 73.53 197.993C88.2866 207.853 105.636 213.116 123.383 213.116C143.311 213.141 162.669 206.465 178.345 194.16L216.369 232.297C217.412 233.348 218.652 234.182 220.019 234.752C221.386 235.321 222.852 235.615 224.333 235.615C225.814 235.615 227.28 235.321 228.647 234.752C230.013 234.182 231.254 233.348 232.297 232.297C233.348 231.254 234.182 230.013 234.752 228.647C235.321 227.28 235.615 225.814 235.615 224.333C235.615 222.852 235.321 221.386 234.752 220.019C234.182 218.652 233.348 217.412 232.297 216.369ZM56.0832 123.383C56.0832 110.072 60.0303 97.0607 67.4253 85.9933C74.8203 74.9259 85.3311 66.2999 97.6286 61.2061C109.926 56.1124 123.458 54.7796 136.513 57.3764C149.568 59.9732 161.559 66.3829 170.971 75.7949C180.383 85.207 186.793 97.1987 189.39 110.254C191.987 123.308 190.654 136.84 185.56 149.138C180.466 161.435 171.84 171.946 160.773 179.341C149.705 186.736 136.694 190.683 123.383 190.683C105.534 190.683 88.4161 183.592 75.7949 170.971C63.1737 158.35 56.0832 141.232 56.0832 123.383Z" fill="#231F20"/>
</svg>
