<svg width="270" height="270" viewBox="0 0 270 270" fill="none" xmlns="http://www.w3.org/2000/svg">
<path d="M134.6 123.383C143.474 123.383 152.148 120.752 159.527 115.822C166.905 110.892 172.655 103.884 176.051 95.6862C179.447 87.4879 180.336 78.4667 178.604 69.7635C176.873 61.0602 172.6 53.0657 166.325 46.791C160.051 40.5163 152.056 36.2432 143.353 34.512C134.65 32.7808 125.629 33.6693 117.43 37.0652C109.232 40.461 102.225 46.2117 97.2948 53.59C92.3648 60.9682 89.7334 69.6427 89.7334 78.5165C89.7334 90.4159 94.4604 101.828 102.875 110.242C111.289 118.656 122.701 123.383 134.6 123.383Z" fill="#231F20"/>
<path d="M201.899 235.55C204.874 235.55 207.727 234.368 209.831 232.264C211.934 230.161 213.116 227.308 213.116 224.333C213.116 203.509 204.844 183.538 190.119 168.813C175.394 154.089 155.423 145.816 134.6 145.816C113.776 145.816 93.8047 154.089 79.08 168.813C64.3553 183.538 56.083 203.509 56.083 224.333C56.083 227.308 57.2648 230.161 59.3683 232.264C61.4718 234.368 64.3248 235.55 67.2997 235.55H201.899Z" fill="#231F20"/>
</svg>
