<svg width="270" height="270" viewBox="0 0 270 270" fill="none" xmlns="http://www.w3.org/2000/svg">
<path d="M155.128 213.116C153.452 213.122 151.797 212.752 150.282 212.034C148.768 211.315 147.435 210.267 146.379 208.966L92.2025 141.666C90.5528 139.659 89.6509 137.141 89.6509 134.543C89.6509 131.945 90.5528 129.428 92.2025 127.421L148.286 60.1209C150.19 57.8303 152.926 56.3898 155.891 56.1163C158.857 55.8429 161.811 56.7588 164.101 58.6627C166.392 60.5666 167.832 63.3025 168.106 66.2685C168.379 69.2344 167.463 72.1876 165.559 74.4782L115.421 134.599L163.877 194.721C165.248 196.367 166.12 198.372 166.388 200.498C166.655 202.624 166.309 204.782 165.388 206.718C164.468 208.653 163.012 210.284 161.194 211.418C159.376 212.552 157.271 213.141 155.128 213.116Z" fill="#231F20"/>
</svg>
