<svg width="270" height="270" viewBox="0 0 270 270" fill="none" xmlns="http://www.w3.org/2000/svg">
<path d="M100.95 123.383C109.823 123.383 118.498 120.752 125.876 115.822C133.254 110.892 139.005 103.884 142.401 95.6862C145.797 87.4879 146.685 78.4667 144.954 69.7635C143.223 61.0602 138.95 53.0657 132.675 46.791C126.4 40.5163 118.406 36.2432 109.703 34.512C100.999 32.7808 91.9782 33.6693 83.7799 37.0652C75.5816 40.461 68.5744 46.2117 63.6444 53.59C58.7144 60.9682 56.083 69.6427 56.083 78.5165C56.083 90.4159 60.81 101.828 69.2241 110.242C77.6382 118.656 89.0502 123.383 100.95 123.383Z" fill="#231F20"/>
<path d="M190.683 145.816C197.338 145.816 203.844 143.843 209.378 140.145C214.912 136.448 219.225 131.193 221.772 125.044C224.319 118.895 224.985 112.129 223.687 105.602C222.388 99.0743 219.183 93.0785 214.477 88.3725C209.771 83.6664 203.775 80.4616 197.248 79.1632C190.72 77.8648 183.955 78.5312 177.806 81.0781C171.657 83.6249 166.402 87.9379 162.704 93.4716C159.007 99.0054 157.033 105.511 157.033 112.167C157.033 121.091 160.578 129.65 166.889 135.961C173.2 142.271 181.759 145.816 190.683 145.816Z" fill="#231F20"/>
<path d="M235.549 224.333C238.524 224.333 241.377 223.151 243.481 221.048C245.584 218.944 246.766 216.091 246.766 213.116C246.757 202.633 243.81 192.362 238.259 183.469C232.709 174.576 224.777 167.417 215.363 162.804C205.95 158.19 195.432 156.308 185.003 157.37C174.573 158.431 164.65 162.395 156.36 168.811C145.373 157.867 131.392 150.422 116.18 147.414C100.967 144.406 85.205 145.97 70.8803 151.909C56.5556 157.847 44.3102 167.895 35.6883 180.784C27.0664 193.673 22.4541 208.826 22.4331 224.333C22.4331 227.308 23.6149 230.161 25.7184 232.264C27.8219 234.368 30.6749 235.55 33.6497 235.55H168.249C171.224 235.55 174.077 234.368 176.181 232.264C178.284 230.161 179.466 227.308 179.466 224.333" fill="#231F20"/>
</svg>
